<svg version="1.1" id="Layer_1" xmlns="http://www.w3.org/2000/svg" xmlns:xlink="http://www.w3.org/1999/xlink" x="0px" y="0px"
	 width="100%" viewBox="0 0 826 848" enable-background="new 0 0 826 848" xml:space="preserve">
<path fill="#000000" opacity="0.000000" stroke="none" 
	d="
M827.000000,305.000000 
	C827.000000,486.666595 827.000000,667.833191 827.000000,848.999817 
	C551.666870,848.999878 276.333710,848.999878 1.000429,848.999939 
	C1.000286,566.333618 1.000286,283.667297 1.000143,1.000694 
	C276.332916,1.000463 551.665833,1.000463 826.999390,1.000231 
	C827.000000,102.166664 827.000000,203.333328 827.000000,305.000000 
M728.741943,84.382675 
	C728.404358,84.083832 728.066833,83.784996 727.324219,82.938919 
	C720.841003,76.750427 714.281555,70.639488 707.889893,64.357819 
	C693.132080,49.853992 675.811279,38.991535 657.689880,29.398327 
	C633.444458,16.563208 607.272888,9.958684 580.065613,8.185208 
	C562.385864,7.032777 544.638794,7.883124 527.054016,10.967947 
	C504.509094,14.922894 483.551056,23.225687 464.028137,34.757084 
	C442.331970,47.572105 423.816284,64.627785 404.955963,81.229286 
	C395.621948,89.445389 385.271881,96.842056 374.451843,102.967216 
	C349.910919,116.859703 322.398865,120.777397 294.995789,125.187042 
	C276.362305,128.185486 257.775360,132.118301 239.603882,137.194916 
	C211.049988,145.172073 183.716339,156.643463 159.054016,173.238480 
	C143.914307,183.425812 129.967529,195.413986 115.698372,206.859436 
	C100.352646,219.168442 87.406143,233.926331 75.489128,249.408478 
	C60.485950,268.900116 47.861488,289.943878 37.708618,312.467682 
	C29.554529,330.557343 23.440992,349.272552 17.861305,368.272614 
	C11.045250,391.482849 11.157877,415.485687 9.391253,439.171875 
	C8.093216,456.575500 9.110147,474.407959 11.382191,491.749695 
	C13.657289,509.114685 17.882584,526.368164 22.818731,543.211609 
	C34.402348,582.738220 53.605415,618.422607 79.132050,650.811584 
	C93.283463,668.767334 109.923927,684.244446 126.386299,700.779663 
	C147.488068,721.580444 168.421570,742.556213 189.776031,763.094299 
	C198.094894,771.095032 206.777313,778.982178 216.325653,785.382080 
	C233.288208,796.751465 250.432571,807.862000 269.256165,816.282104 
	C288.890961,825.065186 308.744202,832.847656 329.795044,837.420898 
	C350.817413,841.987976 371.969910,845.565002 393.577271,844.953491 
	C408.317169,844.536438 423.155090,844.571533 437.747467,842.770264 
	C453.534454,840.821594 469.337402,837.901794 484.689301,833.759705 
	C516.109497,825.282104 545.466370,811.823242 572.577454,793.702759 
	C591.467285,781.077148 608.860596,766.568848 624.861450,750.475830 
	C631.487183,743.812012 637.260010,736.296143 643.369324,729.123962 
	C656.586670,713.607056 667.684692,696.665222 677.109253,678.615295 
	C691.539612,650.978516 703.004333,622.203308 708.179382,591.351929 
	C710.929138,574.958862 713.084534,558.343201 713.777283,541.755615 
	C714.925903,514.253845 712.701904,486.635834 716.954712,459.223755 
	C719.977539,439.739868 727.900391,422.628662 741.327148,408.263733 
	C753.139526,395.625854 766.072693,383.979126 777.270569,370.837769 
	C790.915100,354.825165 802.269165,337.023804 808.872070,316.844543 
	C813.315247,303.265778 817.490784,289.420776 819.759033,275.367737 
	C821.460327,264.826843 819.934204,253.765015 819.966431,242.009720 
	C819.919250,235.726349 819.872009,229.442978 819.639771,222.411682 
	C819.088440,220.357178 818.390076,218.329575 818.008545,216.243988 
	C814.227417,195.576492 806.129395,176.555679 795.168152,158.827316 
	C777.507263,130.263229 753.175720,107.542427 728.741943,84.382675 
z"/>
<path fill="#018463" opacity="1.000000" stroke="none" 
	d="
M126.065773,700.248718 
	C109.923927,684.244446 93.283463,668.767334 79.132050,650.811584 
	C53.605415,618.422607 34.402348,582.738220 22.818731,543.211609 
	C17.882584,526.368164 13.657289,509.114685 11.382191,491.749695 
	C9.110147,474.407959 8.093216,456.575500 9.391253,439.171875 
	C11.157877,415.485687 11.045250,391.482849 17.861305,368.272614 
	C23.440992,349.272552 29.554529,330.557343 37.708618,312.467682 
	C47.861488,289.943878 60.485950,268.900116 75.489128,249.408478 
	C87.406143,233.926331 100.352646,219.168442 115.698372,206.859436 
	C129.967529,195.413986 143.914307,183.425812 159.054016,173.238480 
	C183.716339,156.643463 211.049988,145.172073 239.603882,137.194916 
	C257.775360,132.118301 276.362305,128.185486 294.995789,125.187042 
	C322.398865,120.777397 349.910919,116.859703 374.451843,102.967216 
	C385.271881,96.842056 395.621948,89.445389 404.955963,81.229286 
	C423.816284,64.627785 442.331970,47.572105 464.028137,34.757084 
	C483.551056,23.225687 504.509094,14.922894 527.054016,10.967947 
	C544.638794,7.883124 562.385864,7.032777 580.065613,8.185208 
	C607.272888,9.958684 633.444458,16.563208 657.689880,29.398327 
	C675.811279,38.991535 693.132080,49.853992 707.889893,64.357819 
	C714.281555,70.639488 720.841003,76.750427 727.339539,83.321922 
	C727.354858,83.704926 727.015320,83.969475 726.934204,84.101242 
	C726.706543,84.537369 726.762329,84.809341 727.007935,85.033081 
	C726.995422,85.017235 726.966187,84.989388 726.989807,85.349411 
	C727.984131,87.429527 728.787415,89.272934 729.950012,90.851669 
	C756.633423,127.083542 770.979065,167.362823 771.301514,212.667023 
	C771.537354,245.811920 764.970215,277.112762 749.824585,306.668549 
	C738.598145,328.576233 722.944153,347.089783 706.407043,364.995636 
	C689.658630,383.130432 675.371582,402.823730 666.818115,426.292542 
	C659.623108,446.033844 657.034546,466.693451 654.021179,487.286896 
	C649.045471,521.290955 639.765442,554.088562 625.426453,585.313171 
	C606.152283,627.284729 578.446289,662.990051 543.492981,693.098999 
	C504.960449,726.291016 461.106842,749.459290 411.808197,761.970703 
	C382.283905,769.463562 352.260864,772.596069 321.713165,771.282593 
	C302.512970,770.456970 283.516510,768.645386 264.775848,764.451111 
	C215.708878,753.469543 171.198410,732.854553 131.754807,701.487244 
	C130.391983,700.403503 127.985703,700.631897 126.065773,700.248718 
M176.192032,679.337585 
	C181.684265,682.806152 187.054871,686.487244 192.687561,689.710327 
	C246.799561,720.674316 304.820923,732.559875 366.746918,725.063232 
	C417.718903,718.892700 463.527008,700.120300 503.863403,668.305603 
	C532.669250,645.585449 556.893066,618.760010 575.149902,586.805725 
	C591.416382,558.335266 601.893555,527.699158 607.981689,495.582550 
	C611.110840,479.075592 612.936646,462.319794 616.128784,445.826935 
	C622.858215,411.056885 636.977478,379.485016 659.369934,351.943329 
	C669.131042,339.937622 680.095947,328.918488 690.090881,317.093536 
	C710.831360,292.555634 724.033386,264.537781 726.746643,232.269897 
	C729.511230,199.390732 724.521423,167.860687 708.570374,138.493881 
	C695.433289,114.307808 677.603882,94.293396 654.738586,79.107162 
	C629.033813,62.035061 600.615540,53.312023 569.576111,52.682777 
	C538.906799,52.061031 510.630249,59.132298 484.511932,75.461143 
	C466.716858,86.586372 451.520691,100.771141 435.774719,114.386139 
	C408.255157,138.181274 377.468719,155.947678 341.338013,162.917450 
	C325.337738,166.003983 309.104950,167.863754 293.027283,170.574356 
	C250.202255,177.794373 210.673904,193.461456 174.753235,217.871872 
	C138.018631,242.835388 108.958412,274.850952 87.518860,313.832428 
	C69.778656,346.087708 59.002480,380.469055 55.227318,417.028168 
	C52.057533,447.724762 53.376968,478.261200 60.074867,508.424805 
	C68.566002,546.664124 84.515892,581.605347 107.733063,613.154907 
	C126.654495,638.867004 149.262604,660.837769 176.192032,679.337585 
z"/>
<path fill="#44911B" opacity="1.000000" stroke="none" 
	d="
M126.226036,700.514160 
	C127.985703,700.631897 130.391983,700.403503 131.754807,701.487244 
	C171.198410,732.854553 215.708878,753.469543 264.775848,764.451111 
	C283.516510,768.645386 302.512970,770.456970 321.713165,771.282593 
	C352.260864,772.596069 382.283905,769.463562 411.808197,761.970703 
	C461.106842,749.459290 504.960449,726.291016 543.492981,693.098999 
	C578.446289,662.990051 606.152283,627.284729 625.426453,585.313171 
	C639.765442,554.088562 649.045471,521.290955 654.021179,487.286896 
	C657.034546,466.693451 659.623108,446.033844 666.818115,426.292542 
	C675.371582,402.823730 689.658630,383.130432 706.407043,364.995636 
	C722.944153,347.089783 738.598145,328.576233 749.824585,306.668549 
	C764.970215,277.112762 771.537354,245.811920 771.301514,212.667023 
	C770.979065,167.362823 756.633423,127.083542 729.950012,90.851669 
	C728.787415,89.272934 727.984131,87.429527 727.321289,85.327667 
	C728.067566,84.893394 728.505981,84.840874 728.944336,84.788361 
	C753.175720,107.542427 777.507263,130.263229 795.168152,158.827316 
	C806.129395,176.555679 814.227417,195.576492 818.008545,216.243988 
	C818.390076,218.329575 819.088440,220.357178 819.328979,222.821686 
	C819.293701,229.799484 819.569336,236.367310 819.844971,242.935120 
	C819.934204,253.765015 821.460327,264.826843 819.759033,275.367737 
	C817.490784,289.420776 813.315247,303.265778 808.872070,316.844543 
	C802.269165,337.023804 790.915100,354.825165 777.270569,370.837769 
	C766.072693,383.979126 753.139526,395.625854 741.327148,408.263733 
	C727.900391,422.628662 719.977539,439.739868 716.954712,459.223755 
	C712.701904,486.635834 714.925903,514.253845 713.777283,541.755615 
	C713.084534,558.343201 710.929138,574.958862 708.179382,591.351929 
	C703.004333,622.203308 691.539612,650.978516 677.109253,678.615295 
	C667.684692,696.665222 656.586670,713.607056 643.369324,729.123962 
	C637.260010,736.296143 631.487183,743.812012 624.861450,750.475830 
	C608.860596,766.568848 591.467285,781.077148 572.577454,793.702759 
	C545.466370,811.823242 516.109497,825.282104 484.689301,833.759705 
	C469.337402,837.901794 453.534454,840.821594 437.747467,842.770264 
	C423.155090,844.571533 408.317169,844.536438 393.577271,844.953491 
	C371.969910,845.565002 350.817413,841.987976 329.795044,837.420898 
	C308.744202,832.847656 288.890961,825.065186 269.256165,816.282104 
	C250.432571,807.862000 233.288208,796.751465 216.325653,785.382080 
	C206.777313,778.982178 198.094894,771.095032 189.776031,763.094299 
	C168.421570,742.556213 147.488068,721.580444 126.226036,700.514160 
z"/>
<path fill="#E8F1E3" opacity="1.000000" stroke="none" 
	d="
M819.905701,242.472412 
	C819.569336,236.367310 819.293701,229.799484 819.421448,223.195648 
	C819.872009,229.442978 819.919250,235.726349 819.905701,242.472412 
z"/>
<path fill="#018463" opacity="1.000000" stroke="none" 
	d="
M728.843140,84.585518 
	C728.505981,84.840874 728.067566,84.893394 727.297729,84.967651 
	C726.966187,84.989388 726.995422,85.017235 727.005737,84.763138 
	C727.015747,84.329185 727.015503,84.149330 727.015320,83.969475 
	C727.015320,83.969475 727.354858,83.704926 727.542053,83.595535 
	C728.066833,83.784996 728.404358,84.083832 728.843140,84.585518 
z"/>
<path fill="#C3EF3C" opacity="1.000000" stroke="none" 
	d="
M175.894516,679.135254 
	C149.262604,660.837769 126.654495,638.867004 107.733063,613.154907 
	C84.515892,581.605347 68.566002,546.664124 60.074867,508.424805 
	C53.376968,478.261200 52.057533,447.724762 55.227318,417.028168 
	C59.002480,380.469055 69.778656,346.087708 87.518860,313.832428 
	C108.958412,274.850952 138.018631,242.835388 174.753235,217.871872 
	C210.673904,193.461456 250.202255,177.794373 293.027283,170.574356 
	C309.104950,167.863754 325.337738,166.003983 341.338013,162.917450 
	C377.468719,155.947678 408.255157,138.181274 435.774719,114.386139 
	C451.520691,100.771141 466.716858,86.586372 484.511932,75.461143 
	C510.630249,59.132298 538.906799,52.061031 569.576111,52.682777 
	C600.615540,53.312023 629.033813,62.035061 654.738586,79.107162 
	C677.603882,94.293396 695.433289,114.307808 708.570374,138.493881 
	C724.521423,167.860687 729.511230,199.390732 726.746643,232.269897 
	C724.033386,264.537781 710.831360,292.555634 690.090881,317.093536 
	C680.095947,328.918488 669.131042,339.937622 659.369934,351.943329 
	C636.977478,379.485016 622.858215,411.056885 616.128784,445.826935 
	C612.936646,462.319794 611.110840,479.075592 607.981689,495.582550 
	C601.893555,527.699158 591.416382,558.335266 575.149902,586.805725 
	C556.893066,618.760010 532.669250,645.585449 503.863403,668.305603 
	C463.527008,700.120300 417.718903,718.892700 366.746918,725.063232 
	C304.820923,732.559875 246.799561,720.674316 192.687561,689.710327 
	C187.054871,686.487244 181.684265,682.806152 175.894516,679.135254 
M243.298248,516.191345 
	C252.275131,527.983887 263.086212,537.842773 275.506226,545.835327 
	C321.012939,575.119812 381.241211,572.525757 424.253845,540.138977 
	C467.710419,507.417969 486.315948,449.307587 469.994232,397.241943 
	C452.203369,340.489807 394.418823,301.086121 335.168579,306.539795 
	C303.417603,309.462372 276.639191,322.155212 254.393265,344.021729 
	C207.738358,389.880859 203.146988,463.515198 243.298248,516.191345 
z"/>
<path fill="#44911B" opacity="1.000000" stroke="none" 
	d="
M726.934204,84.101242 
	C727.015503,84.149330 727.015747,84.329185 727.018188,84.778984 
	C726.762329,84.809341 726.706543,84.537369 726.934204,84.101242 
z"/>
<path fill="#6D4534" opacity="1.000000" stroke="none" 
	d="
M243.089615,515.902466 
	C203.146988,463.515198 207.738358,389.880859 254.393265,344.021729 
	C276.639191,322.155212 303.417603,309.462372 335.168579,306.539795 
	C394.418823,301.086121 452.203369,340.489807 469.994232,397.241943 
	C486.315948,449.307587 467.710419,507.417969 424.253845,540.138977 
	C381.241211,572.525757 321.012939,575.119812 275.506226,545.835327 
	C263.086212,537.842773 252.275131,527.983887 243.089615,515.902466 
z"/>
</svg>