<svg xmlns="http://www.w3.org/2000/svg" xmlns:xlink="http://www.w3.org/1999/xlink" version="1.1" id="Layer_1" x="0px" y="0px" width="100%" viewBox="0 0 836 830" enable-background="new 0 0 836 830" xml:space="preserve">
<path fill="#000000" opacity="0.000000" stroke="none" d=" M20.999998,831.000000   C14.334453,831.000000 7.668905,831.000000 1.002518,831.000000   C1.001678,554.380920 1.001678,277.761780 1.001678,1.071335   C279.572296,1.071335 558.144653,1.071335 836.858521,1.071335   C836.858521,277.666626 836.858521,554.333313 836.858521,831.000000   C830.256653,831.000000 823.591003,831.000000 816.142090,830.733765   C816.896667,829.312744 818.511108,828.246033 819.957458,826.986206   C823.912720,823.541443 829.197205,820.698608 829.498962,814.853149   C830.172485,801.809692 831.875305,788.822327 823.574280,776.709656   C814.381775,763.296082 803.768677,751.658508 790.053223,742.997864   C776.200989,734.250793 761.044983,729.011047 744.437805,726.872986   C744.091309,687.927185 744.019104,649.295898 744.002991,610.664551   C743.980042,555.544189 744.060547,500.423676 743.954468,445.303528   C743.928162,431.641815 731.421509,417.755188 716.827637,417.875824   C673.866638,418.230988 630.900818,418.017853 587.936890,417.995026   C571.287964,417.986176 554.639099,417.891144 538.134766,417.527710   C546.539062,411.322510 550.710693,402.355255 554.837097,393.705200   C562.828491,376.953125 564.412048,358.776581 565.058044,340.471619   C565.393799,330.958191 566.280762,321.461548 567.084106,311.971313   C567.169067,310.967743 568.370728,310.058685 569.485718,309.058960   C579.497986,309.166290 587.716797,304.918610 594.801880,299.415192   C604.679810,291.742371 611.233948,281.695221 613.222900,268.699127   C615.630859,252.965073 613.051819,238.929489 602.315125,226.865631   C598.976501,223.114365 595.332336,219.634979 591.787231,215.646820   C591.633728,214.210709 591.278503,213.117325 591.450317,212.114243   C592.216064,207.644684 593.206665,203.213806 593.980347,198.745468   C596.144775,186.245102 598.075378,173.701904 600.410889,161.234161   C602.946716,147.696808 606.583435,134.168152 604.769226,120.350731   C603.757019,112.641571 601.809265,104.402588 597.852661,97.875702   C590.768372,86.189171 579.192505,78.701393 567.376892,72.194366   C555.846863,65.844666 545.098328,58.628075 535.741882,49.301228   C525.949829,39.540115 516.365234,29.482758 505.811584,20.598301   C495.143494,11.617544 482.627563,6.625615 468.094391,6.825027   C457.663513,6.968152 447.706390,8.117722 437.752441,11.425440   C431.577637,13.477365 424.567017,15.126329 418.290100,14.284104   C407.790222,12.875258 397.691528,8.646236 387.208527,6.890570   C378.191559,5.380427 368.502747,3.807199 359.767548,5.550943   C342.414001,9.015103 329.474335,20.428190 317.762970,33.386929   C309.646301,42.368134 301.245239,51.333141 291.776001,58.786919   C281.229919,67.088341 269.198669,73.476364 258.046509,81.040245   C237.343033,95.082253 231.112457,115.002548 234.937027,138.837296   C236.252304,147.034027 237.595566,155.226898 239.010605,163.406906   C241.199326,176.059464 243.558960,188.683304 245.641357,201.352982   C246.437027,206.193970 246.668564,211.127655 247.010483,216.337311   C245.799759,217.382492 244.665985,218.026047 243.682037,218.848816   C226.468369,233.242462 221.449158,251.874741 226.189713,273.070709   C230.885605,294.066925 251.306335,308.811554 270.161560,309.450653   C270.907288,310.299164 271.860992,310.748810 271.920013,311.295197   C272.377441,315.526672 272.732300,319.772675 272.986633,324.022064   C273.693481,335.832214 274.280731,347.649811 275.039307,359.456482   C275.258545,362.869019 275.644928,366.311005 276.389282,369.642426   C279.068939,381.635345 283.048676,393.229736 289.496216,403.705231   C292.653412,408.834808 297.129272,413.152802 300.543884,417.909027   C240.268127,417.987488 180.454605,418.268433 120.647209,417.788940   C107.528503,417.683777 93.865906,430.663849 93.896957,444.687256   C94.101334,536.986206 94.008537,629.285889 93.962692,721.585327   C93.961769,723.452393 93.357109,725.319153 92.616241,727.139771   C74.389908,729.637756 57.945503,735.569153 43.064301,745.925720   C27.848930,756.514771 16.056932,769.936340 8.709603,786.897705   C3.528342,798.858704 3.493517,818.029297 17.042488,826.644836   C18.639166,827.660156 19.693981,829.527588 20.999998,831.000000  z"/>
<path fill="#A8A8A8" opacity="1.000000" stroke="none" d=" M537.990173,417.835358   C554.639099,417.891144 571.287964,417.986176 587.936890,417.995026   C630.900818,418.017853 673.866638,418.230988 716.827637,417.875824   C731.421509,417.755188 743.928162,431.641815 743.954468,445.303528   C744.060547,500.423676 743.980042,555.544189 744.002991,610.664551   C744.019104,649.295898 744.091309,687.927185 744.392273,727.239014   C744.060059,729.552551 742.966309,731.184753 742.963074,732.818970   C742.900024,765.545837 742.962708,798.272949 743.000000,831.000000   C527.312439,831.000000 311.624878,831.000000 95.414162,830.533813   C94.875328,798.112244 94.897438,766.156616 94.766121,734.201660   C94.756508,731.860779 93.637413,729.524536 93.034119,727.186096   C93.357109,725.319153 93.961769,723.452393 93.962692,721.585327   C94.008537,629.285889 94.101334,536.986206 93.896957,444.687256   C93.865906,430.663849 107.528503,417.683777 120.647209,417.788940   C180.454605,418.268433 240.268127,417.987488 300.952515,418.005219   C304.109497,418.356110 306.393158,418.964691 308.677246,418.966248   C382.505280,419.015961 456.333313,419.019104 530.161316,418.957672   C532.771301,418.955505 535.380554,418.225922 537.990173,417.835358  M384.524963,632.994751   C382.196625,632.995178 379.856689,633.142761 377.542755,632.960327   C374.356476,632.709106 373.076294,633.857422 373.135925,637.187378   C373.299683,646.331482 373.239502,655.480713 373.177094,664.627258   C373.145996,669.190247 375.055847,671.215393 379.820312,671.098572   C389.128021,670.870300 398.446350,670.954529 407.758026,671.078735   C410.711761,671.118103 411.937225,670.171387 411.899353,667.088989   C411.776733,657.111938 411.753571,647.130859 411.912201,637.154785   C411.965759,633.787537 410.609436,632.874512 407.467834,632.944031   C400.153839,633.105896 392.833771,632.995056 384.524963,632.994751  M448.484680,670.941895   C451.813202,670.939758 455.141754,670.926880 458.470245,670.937988   C462.810455,670.952454 464.865112,668.760376 464.856659,664.464294   C464.838623,655.310852 464.789337,646.156677 464.891479,637.004395   C464.923370,634.143921 464.132721,632.738647 460.957764,632.778809   C450.640991,632.909424 440.320679,632.902405 430.003632,632.782410   C426.917206,632.746521 425.951233,633.997437 425.982544,636.938660   C426.088867,646.923096 426.095886,656.910156 425.981934,666.894409   C425.947998,669.870178 426.938171,671.079407 430.016998,670.989380   C435.836945,670.819275 441.665405,670.941162 448.484680,670.941895  M449.478394,579.882019   C443.151520,579.882629 436.822174,579.987915 430.498840,579.838623   C427.443451,579.766479 425.915680,580.530640 425.971863,583.983765   C426.134369,593.970947 426.087982,603.963013 425.988831,613.951843   C425.960175,616.842651 426.823547,618.196472 429.963501,618.156494   C439.951660,618.029358 449.943909,618.013123 459.931458,618.162598   C463.297028,618.212952 464.235443,616.810791 464.165619,613.688965   C464.016693,607.032471 464.110596,600.370239 464.125488,593.710388   C464.159210,578.637634 465.144073,579.869141 449.478394,579.882019  M411.147705,598.500122   C411.145142,593.669800 411.028900,588.835938 411.181427,584.010498   C411.277039,580.985962 410.108521,579.890381 407.092316,579.930664   C397.766449,580.055176 388.437927,579.994629 379.110474,579.976379   C374.936584,579.968201 373.041748,582.101501 373.045929,586.170593   C373.055481,595.498047 373.121063,604.826599 372.995880,614.152405   C372.954315,617.249146 374.243713,618.184265 377.174530,618.152466   C387.167084,618.044128 397.162445,618.033630 407.154724,618.154175   C410.244568,618.191467 411.259766,616.926758 411.178162,613.989624   C411.044098,609.163086 411.145813,604.330078 411.147705,598.500122  z"/>
<path fill="#FECF56" opacity="1.000000" stroke="none" d=" M92.616241,727.139771   C93.637413,729.524536 94.756508,731.860779 94.766121,734.201660   C94.897438,766.156616 94.875328,798.112244 94.945503,830.533813   C70.645775,831.000000 46.291542,831.000000 21.468655,831.000000   C19.693981,829.527588 18.639166,827.660156 17.042488,826.644836   C3.493517,818.029297 3.528342,798.858704 8.709603,786.897705   C16.056932,769.936340 27.848930,756.514771 43.064301,745.925720   C57.945503,735.569153 74.389908,729.637756 92.616241,727.139771  z"/>
<path fill="#FFCF56" opacity="1.000000" stroke="none" d=" M743.468689,831.000000   C742.962708,798.272949 742.900024,765.545837 742.963074,732.818970   C742.966309,731.184753 744.060059,729.552551 744.691589,727.553467   C761.044983,729.011047 776.200989,734.250793 790.053223,742.997864   C803.768677,751.658508 814.381775,763.296082 823.574280,776.709656   C831.875305,788.822327 830.172485,801.809692 829.498962,814.853149   C829.197205,820.698608 823.912720,823.541443 819.957458,826.986206   C818.511108,828.246033 816.896667,829.312744 815.679443,830.733765   C791.979126,831.000000 767.958191,831.000000 743.468689,831.000000  z"/>
<path fill="#FFCF56" opacity="1.000000" stroke="none" d=" M538.134766,417.527710   C535.380554,418.225922 532.771301,418.955505 530.161316,418.957672   C456.333313,419.019104 382.505280,419.015961 308.677246,418.966248   C306.393158,418.964691 304.109497,418.356110 301.416962,417.934326   C297.129272,413.152802 292.653412,408.834808 289.496216,403.705231   C283.048676,393.229736 279.068939,381.635345 276.389282,369.642426   C275.644928,366.311005 275.258545,362.869019 275.039307,359.456482   C274.280731,347.649811 273.693481,335.832214 272.986633,324.022064   C272.732300,319.772675 272.377441,315.526672 271.920013,311.295197   C271.860992,310.748810 270.907288,310.299164 270.346497,309.135132   C271.137604,306.635895 272.743744,304.760132 272.640594,302.983643   C271.574768,284.627594 270.232941,266.287537 269.314758,247.853500   C269.997589,247.420807 270.647217,247.054718 270.624023,246.737793   C269.911072,236.984055 268.813324,227.246887 268.453613,217.482147   C268.097656,207.819290 265.560883,197.676727 271.682678,188.856201   C274.976318,184.110596 279.070831,179.905075 282.943939,175.581223   C288.365326,169.528885 292.984436,163.174072 293.163208,154.558426   C293.352783,145.424042 293.832550,136.294632 293.948273,127.160034   C294.098480,115.300041 297.601715,111.029816 308.928589,107.746895   C327.188477,102.454544 345.715820,98.767044 364.710205,97.982140   C386.567871,97.078903 408.441742,96.200958 430.312195,96.101334   C445.406250,96.032578 460.508820,97.253937 475.603210,97.988373   C494.951263,98.929787 513.793762,102.781570 532.289001,108.346497   C538.954895,110.352158 543.888367,114.443382 544.203918,122.046692   C544.610352,131.841034 544.908691,141.646835 544.920593,151.448105   C544.928345,157.854889 546.372131,163.781097 550.283020,168.750198   C554.688843,174.348129 559.579041,179.571930 564.370422,184.856995   C568.039734,188.904327 571.165283,193.249008 570.963562,198.947128   C570.470093,212.883835 569.688782,226.810242 569.169250,240.746231   C569.080078,243.139465 569.710022,245.559540 570.004944,248.430634   C569.663330,255.495041 569.382507,262.099609 568.972595,268.696136   C568.317078,279.246704 567.892029,289.827911 566.697021,300.319580   C566.286621,303.922455 566.140442,306.728088 569.054260,309.105774   C568.370728,310.058685 567.169067,310.967743 567.084106,311.971313   C566.280762,321.461548 565.393799,330.958191 565.058044,340.471619   C564.412048,358.776581 562.828491,376.953125 554.837097,393.705200   C550.710693,402.355255 546.539062,411.322510 538.134766,417.527710  M343.943939,266.228333   C352.952484,266.182739 361.961060,266.137146 371.686768,266.429779   C375.505859,266.281586 379.324921,266.133423 383.948334,266.047485   C390.450958,265.758911 392.325623,263.700287 391.633270,257.430298   C390.470184,246.897415 384.405823,239.267822 376.269653,233.359116   C353.265350,216.652817 327.715851,226.561752 314.263824,245.284546   C312.059998,248.351852 311.018494,252.589279 310.468994,256.433044   C309.606720,262.464874 312.926422,265.919037 318.978455,266.093933   C322.961365,266.209045 326.952637,266.034760 331.721100,266.223419   C335.490356,266.162659 339.259644,266.101898 343.943939,266.228333  M474.944733,266.227631   C483.955444,266.177551 492.966156,266.127472 502.690918,266.420532   C506.521484,266.275391 510.352051,266.130219 515.091553,266.058289   C518.920593,266.076996 522.757690,266.260956 526.576782,266.074951   C532.046509,265.808563 535.184265,262.333618 534.767090,256.912384   C534.578979,254.467896 533.994324,251.958023 533.082886,249.680588   C526.987366,234.449127 501.277313,217.618988 478.243927,228.075485   C465.581604,233.823822 456.180817,242.377121 453.596069,256.646576   C452.322662,263.676331 454.775208,266.128723 462.732056,266.220825   C466.496765,266.165131 470.261505,266.109436 474.944733,266.227631  M394.677521,299.323456   C394.438446,300.795837 394.153076,302.262390 393.967682,303.741486   C392.520813,315.284119 401.265717,323.330444 411.339447,322.194336   C417.421295,321.508392 423.739624,321.378723 429.780487,322.223602   C439.301910,323.555176 448.126312,311.428162 445.484833,302.712219   C440.085602,284.896942 435.133911,266.946411 429.809631,249.107803   C428.253906,243.895493 424.712555,241.876526 419.179535,241.908844   C413.796265,241.940292 411.153381,245.424332 409.370575,249.731888   C408.104858,252.790039 407.358612,256.065674 406.416412,259.254822   C402.554688,272.326416 398.706757,285.402039 394.677521,299.323456  M509.884613,171.518906   C508.595703,171.188293 507.316010,170.815323 506.016479,170.533722   C494.732391,168.088577 483.398285,166.736374 471.905548,169.047104   C462.868744,170.864044 458.401855,177.047791 459.026520,186.881653   C459.557953,195.247482 464.093628,198.973526 473.505493,200.132294   C483.803589,201.400192 494.549225,199.777512 504.306610,204.892212   C509.004211,207.354630 513.911926,209.442764 518.817993,211.474701   C526.521240,214.665131 534.073669,212.406540 538.576599,205.777710   C542.741699,199.646194 541.892517,191.314148 536.239563,185.699585   C529.088928,178.597458 520.218933,174.514420 509.884613,171.518906  M317.904327,212.918686   C321.834045,211.849396 326.058350,211.374924 329.639313,209.601440   C341.291901,203.830444 353.173828,199.668350 366.471008,200.878281   C369.038513,201.111908 371.781281,200.563721 374.308838,199.879700   C382.244110,197.732132 386.173828,192.274948 385.992462,184.100235   C385.823730,176.494446 381.920135,171.620560 373.952301,169.850037   C369.608887,168.884903 364.921844,167.563400 360.707703,168.277893   C348.332977,170.376007 335.992157,172.959656 323.900543,176.302612   C318.997955,177.657990 314.560822,181.169632 310.283051,184.220459   C299.077667,192.211945 302.744812,209.982391 317.904327,212.918686  M396.526550,370.994141   C413.546509,378.144104 430.293030,377.656158 446.632141,368.958923   C456.064453,363.938141 463.968903,357.060608 469.446991,347.830292   C470.569305,345.939270 470.549774,342.693054 469.709747,340.616211   C469.321167,339.655457 465.568909,339.436768 463.565125,339.883698   C460.016876,340.675079 456.683899,342.379333 453.181244,343.438263   C445.405151,345.789093 437.712677,348.919922 429.747894,350.042114   C411.070740,352.673676 393.401520,348.337280 376.444061,340.391693   C374.483002,339.472778 371.630402,340.456482 369.191162,340.558105   C369.337769,343.143921 368.622467,346.224731 369.775482,348.232635   C375.784332,358.696472 384.998962,365.685577 396.526550,370.994141  z"/>
<path fill="#F3AD3B" opacity="1.000000" stroke="none" d=" M570.007751,247.967209   C569.710022,245.559540 569.080078,243.139465 569.169250,240.746231   C569.688782,226.810242 570.470093,212.883835 570.963562,198.947128   C571.165283,193.249008 568.039734,188.904327 564.370422,184.856995   C559.579041,179.571930 554.688843,174.348129 550.283020,168.750198   C546.372131,163.781097 544.928345,157.854889 544.920593,151.448105   C544.908691,141.646835 544.610352,131.841034 544.203918,122.046692   C543.888367,114.443382 538.954895,110.352158 532.289001,108.346497   C513.793762,102.781570 494.951263,98.929787 475.603210,97.988373   C460.508820,97.253937 445.406250,96.032578 430.312195,96.101334   C408.441742,96.200958 386.567871,97.078903 364.710205,97.982140   C345.715820,98.767044 327.188477,102.454544 308.928589,107.746895   C297.601715,111.029816 294.098480,115.300041 293.948273,127.160034   C293.832550,136.294632 293.352783,145.424042 293.163208,154.558426   C292.984436,163.174072 288.365326,169.528885 282.943939,175.581223   C279.070831,179.905075 274.976318,184.110596 271.682678,188.856201   C265.560883,197.676727 268.097656,207.819290 268.453613,217.482147   C268.813324,227.246887 269.911072,236.984055 270.624023,246.737793   C270.647217,247.054718 269.997589,247.420807 269.051178,247.626587   C259.161346,244.870178 253.462646,239.038177 251.954803,229.326767   C251.475861,226.242188 250.915054,223.137222 249.983734,220.169632   C249.503983,218.640991 248.128128,217.393585 247.157181,216.019104   C246.668564,211.127655 246.437027,206.193970 245.641357,201.352982   C243.558960,188.683304 241.199326,176.059464 239.010605,163.406906   C237.595566,155.226898 236.252304,147.034027 234.937027,138.837296   C231.112457,115.002548 237.343033,95.082253 258.046509,81.040245   C269.198669,73.476364 281.229919,67.088341 291.776001,58.786919   C301.245239,51.333141 309.646301,42.368134 317.762970,33.386929   C329.474335,20.428190 342.414001,9.015103 359.767548,5.550943   C368.502747,3.807199 378.191559,5.380427 387.208527,6.890570   C397.691528,8.646236 407.790222,12.875258 418.290100,14.284104   C424.567017,15.126329 431.577637,13.477365 437.752441,11.425440   C447.706390,8.117722 457.663513,6.968152 468.094391,6.825027   C482.627563,6.625615 495.143494,11.617544 505.811584,20.598301   C516.365234,29.482758 525.949829,39.540115 535.741882,49.301228   C545.098328,58.628075 555.846863,65.844666 567.376892,72.194366   C579.192505,78.701393 590.768372,86.189171 597.852661,97.875702   C601.809265,104.402588 603.757019,112.641571 604.769226,120.350731   C606.583435,134.168152 602.946716,147.696808 600.410889,161.234161   C598.075378,173.701904 596.144775,186.245102 593.980347,198.745468   C593.206665,203.213806 592.216064,207.644684 591.450317,212.114243   C591.278503,213.117325 591.633728,214.210709 591.475952,215.818268   C590.128540,219.160675 588.703674,221.867844 588.044983,224.750061   C586.544800,231.314819 586.200989,238.396439 579.834045,242.596848   C576.729065,244.645325 573.293640,246.192886 570.007751,247.967209  z"/>
<path fill="#FDC430" opacity="1.000000" stroke="none" d=" M247.010483,216.337311   C248.128128,217.393585 249.503983,218.640991 249.983734,220.169632   C250.915054,223.137222 251.475861,226.242188 251.954803,229.326767   C253.462646,239.038177 259.161346,244.870178 268.704346,247.716125   C270.232941,266.287537 271.574768,284.627594 272.640594,302.983643   C272.743744,304.760132 271.137604,306.635895 270.139984,308.781097   C251.306335,308.811554 230.885605,294.066925 226.189713,273.070709   C221.449158,251.874741 226.468369,233.242462 243.682037,218.848816   C244.665985,218.026047 245.799759,217.382492 247.010483,216.337311  z"/>
<path fill="#FDC430" opacity="1.000000" stroke="none" d=" M570.004944,248.430634   C573.293640,246.192886 576.729065,244.645325 579.834045,242.596848   C586.200989,238.396439 586.544800,231.314819 588.044983,224.750061   C588.703674,221.867844 590.128540,219.160675 591.516785,216.202576   C595.332336,219.634979 598.976501,223.114365 602.315125,226.865631   C613.051819,238.929489 615.630859,252.965073 613.222900,268.699127   C611.233948,281.695221 604.679810,291.742371 594.801880,299.415192   C587.716797,304.918610 579.497986,309.166290 569.485718,309.058960   C566.140442,306.728088 566.286621,303.922455 566.697021,300.319580   C567.892029,289.827911 568.317078,279.246704 568.972595,268.696136   C569.382507,262.099609 569.663330,255.495041 570.004944,248.430634  z"/>
<path fill="#6B517B" opacity="1.000000" stroke="none" d=" M385.020569,632.994751   C392.833771,632.995056 400.153839,633.105896 407.467834,632.944031   C410.609436,632.874512 411.965759,633.787537 411.912201,637.154785   C411.753571,647.130859 411.776733,657.111938 411.899353,667.088989   C411.937225,670.171387 410.711761,671.118103 407.758026,671.078735   C398.446350,670.954529 389.128021,670.870300 379.820312,671.098572   C375.055847,671.215393 373.145996,669.190247 373.177094,664.627258   C373.239502,655.480713 373.299683,646.331482 373.135925,637.187378   C373.076294,633.857422 374.356476,632.709106 377.542755,632.960327   C379.856689,633.142761 382.196625,632.995178 385.020569,632.994751  z"/>
<path fill="#6A517B" opacity="1.000000" stroke="none" d=" M447.987488,670.941772   C441.665405,670.941162 435.836945,670.819275 430.016998,670.989380   C426.938171,671.079407 425.947998,669.870178 425.981934,666.894409   C426.095886,656.910156 426.088867,646.923096 425.982544,636.938660   C425.951233,633.997437 426.917206,632.746521 430.003632,632.782410   C440.320679,632.902405 450.640991,632.909424 460.957764,632.778809   C464.132721,632.738647 464.923370,634.143921 464.891479,637.004395   C464.789337,646.156677 464.838623,655.310852 464.856659,664.464294   C464.865112,668.760376 462.810455,670.952454 458.470245,670.937988   C455.141754,670.926880 451.813202,670.939758 447.987488,670.941772  z"/>
<path fill="#6A507A" opacity="1.000000" stroke="none" d=" M449.972687,579.881836   C465.144073,579.869141 464.159210,578.637634 464.125488,593.710388   C464.110596,600.370239 464.016693,607.032471 464.165619,613.688965   C464.235443,616.810791 463.297028,618.212952 459.931458,618.162598   C449.943909,618.013123 439.951660,618.029358 429.963501,618.156494   C426.823547,618.196472 425.960175,616.842651 425.988831,613.951843   C426.087982,603.963013 426.134369,593.970947 425.971863,583.983765   C425.915680,580.530640 427.443451,579.766479 430.498840,579.838623   C436.822174,579.987915 443.151520,579.882629 449.972687,579.881836  z"/>
<path fill="#6A507B" opacity="1.000000" stroke="none" d=" M411.147919,598.999939   C411.145813,604.330078 411.044098,609.163086 411.178162,613.989624   C411.259766,616.926758 410.244568,618.191467 407.154724,618.154175   C397.162445,618.033630 387.167084,618.044128 377.174530,618.152466   C374.243713,618.184265 372.954315,617.249146 372.995880,614.152405   C373.121063,604.826599 373.055481,595.498047 373.045929,586.170593   C373.041748,582.101501 374.936584,579.968201 379.110474,579.976379   C388.437927,579.994629 397.766449,580.055176 407.092316,579.930664   C410.108521,579.890381 411.277039,580.985962 411.181427,584.010498   C411.028900,588.835938 411.145142,593.669800 411.147919,598.999939  z"/>
<path fill="#EFA022" opacity="1.000000" stroke="none" d=" M394.765625,298.899841   C398.706757,285.402039 402.554688,272.326416 406.416412,259.254822   C407.358612,256.065674 408.104858,252.790039 409.370575,249.731888   C411.153381,245.424332 413.796265,241.940292 419.179535,241.908844   C424.712555,241.876526 428.253906,243.895493 429.809631,249.107803   C435.133911,266.946411 440.085602,284.896942 445.484833,302.712219   C448.126312,311.428162 439.301910,323.555176 429.780487,322.223602   C423.739624,321.378723 417.421295,321.508392 411.339447,322.194336   C401.265717,323.330444 392.520813,315.284119 393.967682,303.741486   C394.153076,302.262390 394.438446,300.795837 394.765625,298.899841  z"/>
<path fill="#DA844E" opacity="1.000000" stroke="none" d=" M510.268494,171.649475   C520.218933,174.514420 529.088928,178.597458 536.239563,185.699585   C541.892517,191.314148 542.741699,199.646194 538.576599,205.777710   C534.073669,212.406540 526.521240,214.665131 518.817993,211.474701   C513.911926,209.442764 509.004211,207.354630 504.306610,204.892212   C494.549225,199.777512 483.803589,201.400192 473.505493,200.132294   C464.093628,198.973526 459.557953,195.247482 459.026520,186.881653   C458.401855,177.047791 462.868744,170.864044 471.905548,169.047104   C483.398285,166.736374 494.732391,168.088577 506.016479,170.533722   C507.316010,170.815323 508.595703,171.188293 510.268494,171.649475  z"/>
<path fill="#DA844E" opacity="1.000000" stroke="none" d=" M317.496765,212.860382   C302.744812,209.982391 299.077667,192.211945 310.283051,184.220459   C314.560822,181.169632 318.997955,177.657990 323.900543,176.302612   C335.992157,172.959656 348.332977,170.376007 360.707703,168.277893   C364.921844,167.563400 369.608887,168.884903 373.952301,169.850037   C381.920135,171.620560 385.823730,176.494446 385.992462,184.100235   C386.173828,192.274948 382.244110,197.732132 374.308838,199.879700   C371.781281,200.563721 369.038513,201.111908 366.471008,200.878281   C353.173828,199.668350 341.291901,203.830444 329.639313,209.601440   C326.058350,211.374924 321.834045,211.849396 317.496765,212.860382  z"/>
<path fill="#A82B53" opacity="1.000000" stroke="none" d=" M396.183594,370.831085   C384.998962,365.685577 375.784332,358.696472 369.775482,348.232635   C368.622467,346.224731 369.337769,343.143921 369.191162,340.558105   C371.630402,340.456482 374.483002,339.472778 376.444061,340.391693   C393.401520,348.337280 411.070740,352.673676 429.747894,350.042114   C437.712677,348.919922 445.405151,345.789093 453.181244,343.438263   C456.683899,342.379333 460.016876,340.675079 463.565125,339.883698   C465.568909,339.436768 469.321167,339.655457 469.709747,340.616211   C470.549774,342.693054 470.569305,345.939270 469.446991,347.830292   C463.968903,357.060608 456.064453,363.938141 446.632141,368.958923   C430.293030,377.656158 413.546509,378.144104 396.183594,370.831085  z"/>
<path fill="#FDFCF8" opacity="1.000000" stroke="none" d=" M461.951782,265.991150   C454.775208,266.128723 452.322662,263.676331 453.596069,256.646576   C456.180817,242.377121 465.581604,233.823822 478.243927,228.075485   C501.277313,217.618988 526.987366,234.449127 533.082886,249.680588   C533.994324,251.958023 534.578979,254.467896 534.767090,256.912384   C535.184265,262.333618 532.046509,265.808563 526.576782,266.074951   C522.757690,266.260956 518.920593,266.076996 514.680298,265.621338   C516.676514,249.400345 507.049011,235.317215 492.378113,233.162140   C473.321442,230.362808 459.074890,245.734360 461.951782,265.991150  z"/>
<path fill="#FDFCF8" opacity="1.000000" stroke="none" d=" M330.940186,265.990051   C326.952637,266.034760 322.961365,266.209045 318.978455,266.093933   C312.926422,265.919037 309.606720,262.464874 310.468994,256.433044   C311.018494,252.589279 312.059998,248.351852 314.263824,245.284546   C327.715851,226.561752 353.265350,216.652817 376.269653,233.359116   C384.405823,239.267822 390.470184,246.897415 391.633270,257.430298   C392.325623,263.700287 390.450958,265.758911 383.572327,265.611115   C385.215454,252.550369 380.640778,241.962463 370.302307,236.302643   C360.937195,231.175644 351.385162,231.187119 342.491882,237.280624   C332.427063,244.176910 328.904938,254.050751 330.940186,265.990051  z"/>
<path fill="#906051" opacity="1.000000" stroke="none" d=" M462.341919,266.105988   C459.074890,245.734360 473.321442,230.362808 492.378113,233.162140   C507.049011,235.317215 516.676514,249.400345 514.225830,265.584717   C510.352051,266.130219 506.521484,266.275391 502.430756,265.841797   C504.039185,258.834412 503.706085,252.803360 498.478821,247.966705   C493.994934,243.817856 488.741608,242.865540 482.627014,244.889801   C476.949371,243.517410 475.330444,244.873306 474.857483,251.186859   C471.538971,256.243835 472.622986,261.141602 474.026215,266.053741   C470.261505,266.109436 466.496765,266.165131 462.341919,266.105988  z"/>
<path fill="#906151" opacity="1.000000" stroke="none" d=" M331.330627,266.106750   C328.904938,254.050751 332.427063,244.176910 342.491882,237.280624   C351.385162,231.187119 360.937195,231.175644 370.302307,236.302643   C380.640778,241.962463 385.215454,252.550369 383.170166,265.579987   C379.324921,266.133423 375.505859,266.281586 371.474121,265.899414   C371.708649,263.429077 372.443268,261.504730 372.549561,259.546295   C372.880432,253.452271 370.045563,248.888794 364.838318,246.017151   C360.690399,243.729675 356.260529,242.326752 351.602234,245.701294   C349.390869,245.302017 346.210083,244.290039 345.822693,244.940872   C344.647217,246.915497 344.552551,249.533447 343.745514,252.157806   C343.312378,256.956909 343.170624,261.499023 343.028870,266.041138   C339.259644,266.101898 335.490356,266.162659 331.330627,266.106750  z"/>
<path fill="#242323" opacity="1.000000" stroke="none" d=" M351.910034,245.848892   C356.260529,242.326752 360.690399,243.729675 364.838318,246.017151   C370.045563,248.888794 372.880432,253.452271 372.549561,259.546295   C372.443268,261.504730 371.708649,263.429077 371.115540,265.730286   C361.961060,266.137146 352.952484,266.182739 343.486389,266.134735   C343.170624,261.499023 343.312378,256.956909 344.029053,252.350266   C346.882660,252.253891 349.675476,252.988754 351.262054,251.924866   C352.347900,251.196747 351.753357,247.962662 351.910034,245.848892  z"/>
<path fill="#242323" opacity="1.000000" stroke="none" d=" M474.485474,266.140686   C472.622986,261.141602 471.538971,256.243835 475.131775,251.390823   C478.038239,251.695099 480.493256,252.144974 482.948273,252.594849   C482.957855,250.065887 482.967407,247.536926 482.976959,245.007965   C488.741608,242.865540 493.994934,243.817856 498.478821,247.966705   C503.706085,252.803360 504.039185,258.834412 502.073730,265.670227   C492.966156,266.127472 483.955444,266.177551 474.485474,266.140686  z"/>
<path fill="#F5F3F2" opacity="1.000000" stroke="none" d=" M482.627014,244.889801   C482.967407,247.536926 482.957855,250.065887 482.948273,252.594849   C480.493256,252.144974 478.038239,251.695099 475.308960,251.041245   C475.330444,244.873306 476.949371,243.517410 482.627014,244.889801  z"/>
<path fill="#F3F2F1" opacity="1.000000" stroke="none" d=" M351.602203,245.701294   C351.753357,247.962662 352.347900,251.196747 351.262054,251.924866   C349.675476,252.988754 346.882660,252.253891 344.320435,252.093277   C344.552551,249.533447 344.647217,246.915497 345.822693,244.940872   C346.210083,244.290039 349.390869,245.302017 351.602203,245.701294  z"/>
</svg>